<?xml version="1.0" encoding="UTF-8" standalone="no"?>
<!-- Created with Inkscape (http://www.inkscape.org/) -->

<svg
   xmlns:dc="http://purl.org/dc/elements/1.1/"
   xmlns:cc="http://creativecommons.org/ns#"
   xmlns:rdf="http://www.w3.org/1999/02/22-rdf-syntax-ns#"
   xmlns:svg="http://www.w3.org/2000/svg"
   xmlns="http://www.w3.org/2000/svg"
   xmlns:sodipodi="http://sodipodi.sourceforge.net/DTD/sodipodi-0.dtd"
   xmlns:inkscape="http://www.inkscape.org/namespaces/inkscape"
   width="545.4375"
   height="689.04236"
   viewBox="0 0 545.4375 689.04236"
   version="1.1"
   id="svg2216"
   inkscape:version="0.92.3 (2405546, 2018-03-11)"
   sodipodi:docname="anchor-christian-symbol-monogram-000000.svg">
  <defs
     id="defs2210" />
  <sodipodi:namedview
     id="base"
     pagecolor="#ffffff"
     bordercolor="#666666"
     borderopacity="1.0"
     inkscape:pageopacity="0.0"
     inkscape:pageshadow="2"
     inkscape:zoom="0.35"
     inkscape:cx="41.402302"
     inkscape:cy="230.67355"
     inkscape:document-units="px"
     inkscape:current-layer="layer1"
     showgrid="false"
     units="px"
     inkscape:window-width="1280"
     inkscape:window-height="737"
     inkscape:window-x="-8"
     inkscape:window-y="-8"
     inkscape:window-maximized="1"
     fit-margin-top="10"
     fit-margin-left="10"
     fit-margin-bottom="10"
     fit-margin-right="10"
     inkscape:showpageshadow="false"
     scale-x="1" />
  <metadata
     id="metadata2213">
    <rdf:RDF>
      <cc:Work
         rdf:about="">
        <dc:format>image/svg+xml</dc:format>
        <dc:type
           rdf:resource="http://purl.org/dc/dcmitype/StillImage" />
        <dc:title></dc:title>
      </cc:Work>
    </rdf:RDF>
  </metadata>
  <g
     inkscape:label="Layer 1"
     inkscape:groupmode="layer"
     id="layer1"
     transform="translate(373.45155,58.449431)">
  
<g
       aria-label="d"
       transform="scale(0.95885009,1.0429159)"
       style="font-style:normal;font-variant:normal;font-weight:normal;font-stretch:normal;font-size:35.82130432px;line-height:1.25;font-family:'Open Sans';-inkscape-font-specification:'Open Sans, Normal';font-variant-ligatures:normal;font-variant-caps:normal;font-variant-numeric:normal;font-feature-settings:normal;text-align:start;letter-spacing:0px;word-spacing:0px;writing-mode:lr-tb;text-anchor:start;fill:#000000;fill-opacity:1;stroke:#000000;stroke-width:1;stroke-miterlimit:4;stroke-dasharray:none;stroke-opacity:1"
       id="text827">
      <path
         d="m -234.34187,329.63107 q 0,-4.44184 3.29556,-6.87769 3.29556,-2.57914 9.02697,-2.006 3.00899,0.28657 5.73141,1.71943 2.86571,1.28956 4.44184,2.57913 1.57614,1.28957 4.29856,3.72542 2.14928,-6.30455 2.29256,-15.76138 0.14329,-12.03596 -0.42985,-32.9556 -5.8747,-0.42986 -11.03296,-3.58213 -5.01499,-3.29556 -8.16726,-8.88369 -3.29556,-5.58812 -3.43885,-12.32253 -0.28657,-14.04195 7.88069,-22.06592 8.31054,-8.16726 22.92564,-8.31055 9.02697,0 14.75838,1.71943 5.87469,1.57613 10.74639,6.59112 4.8717,5.01498 7.30754,14.90166 2.43585,9.7434 2.86571,25.2182 1.14628,35.39145 -5.58812,51.15283 -6.73441,15.61809 -23.78535,15.33152 -8.88369,-0.14329 -14.90167,-3.8687 -5.58812,4.29856 -13.46881,4.29856 -6.44783,0 -10.60311,-2.72242 -4.15527,-2.86571 -4.15527,-7.88069 z m 24.64506,3.58213 q -1.57614,-1.28957 -4.44184,-4.44184 -2.72242,-3.15228 -4.8717,-4.58513 -2.14928,-1.57614 -5.15827,-2.00599 -4.01198,-0.57314 -6.16126,1.57613 -2.29257,2.006 -2.57914,5.8747 -0.14328,5.01498 4.01199,7.30755 4.15527,2.14927 9.60011,2.00599 6.01798,-0.14329 9.60011,-5.73141 z m 12.75239,-54.01853 q 0.71642,27.36748 0.14328,36.10787 -0.71642,11.03297 -6.16126,17.4808 6.59112,5.30156 14.47181,5.30156 4.72841,0 7.88068,-2.43585 3.29556,-2.43585 6.01798,-9.45683 2.72242,-7.02097 3.29556,-19.48679 0.57315,-12.46581 0,-32.52575 -0.57314,-13.32552 -2.00599,-22.06592 -1.28957,-8.88369 -3.15227,-14.18524 -1.86271,-5.30155 -5.15827,-7.88069 -3.29556,-2.57913 -6.59112,-3.29556 -3.29556,-0.85971 -8.88369,-0.71642 -13.18224,0.28657 -21.06293,7.88068 -7.88068,7.59412 -8.02397,20.20322 -0.14329,8.7404 5.30155,16.04795 5.58813,7.16426 15.04495,8.16726 -0.14328,-8.7404 -0.28657,-17.33752 -0.14328,-7.45083 0.42986,-12.32253 0.71642,-4.8717 2.72242,-9.17025 2.00599,-4.44185 6.30455,-6.44784 4.44184,-2.00599 11.17625,-1.71942 -2.43585,0.14328 -4.44185,1.003 -1.8627,0.85971 -3.15227,2.00599 -1.14628,1.003 -2.00599,3.15227 -0.85972,2.006 -1.28957,3.58213 -0.42986,1.43286 -0.71643,4.44185 -0.28657,2.8657 -0.28657,4.44184 0,1.57614 0,5.15827 0,3.43884 0,4.72841 0,4.72841 0.28657,18.05394 3.15228,-0.57314 6.44784,-1.86271 -1.43285,1.003 -3.15228,1.86271 -1.57613,0.71643 -3.15227,1.28957 z"
         style="font-style:normal;font-variant:normal;font-weight:normal;font-stretch:normal;font-size:143.28523254px;font-family:'Free Monogram Beta';-inkscape-font-specification:'Free Monogram Beta';fill:#000000;fill-opacity:1;stroke:#000000;stroke-width:1;stroke-miterlimit:4;stroke-dasharray:none;stroke-opacity:1"
         id="path818" />
    </g>



<g
       aria-label="W"
       transform="scale(0.94659813,1.0564145)"
       style="font-style:normal;font-variant:normal;font-weight:normal;font-stretch:normal;font-size:36.89403915px;line-height:1.25;font-family:'Open Sans';-inkscape-font-specification:'Open Sans, Normal';font-variant-ligatures:normal;font-variant-caps:normal;font-variant-numeric:normal;font-feature-settings:normal;text-align:start;letter-spacing:0px;word-spacing:0px;writing-mode:lr-tb;text-anchor:start;fill:#000000;fill-opacity:1;stroke:#000000;stroke-width:1;stroke-miterlimit:4;stroke-dasharray:none;stroke-opacity:1"
       id="text831">
      <path
         d="m -119.70003,353.88525 h -3.39425 q 0.14758,-12.3964 -1.47576,-24.35007 -1.62334,-12.10125 -4.27971,-22.13643 -2.65637,-10.03518 -5.46032,-19.48005 -2.80394,-9.59245 -5.31274,-20.80824 -2.36122,-11.21579 -3.24667,-21.98885 -3.39426,0.5903 -6.93608,0.5903 -9.88761,0.14758 -17.26642,-4.27971 -7.37881,-4.57486 -7.52638,-14.01973 0,-6.64093 3.54183,-10.47791 3.54182,-3.83698 8.41184,-3.68941 4.87001,0.14758 8.55942,3.83699 -7.08366,-5.01759 -12.83913,-1.47577 -5.75547,3.39426 -5.16517,12.10125 0.44273,6.1982 4.57486,10.03518 3.98456,3.6894 8.55942,4.87001 4.42729,1.03304 9.2973,0.88546 3.39425,0 6.64093,-0.44273 -0.44273,-6.05062 -0.29515,-12.24882 0.14757,-11.65852 5.60789,-19.03733 5.6079,-7.37881 13.72459,-7.23123 5.01759,0 8.41184,3.6894 3.54183,3.68941 3.39425,9.88761 0,5.16516 -2.65637,10.03518 -2.65637,4.87001 -7.52639,8.70699 -4.72243,3.83698 -11.21579,6.05063 1.18061,5.90304 3.39426,13.577 2.21364,7.52639 3.98455,13.57701 1.91849,6.05062 3.98456,14.75762 2.21364,8.55942 3.0991,16.52853 1.03303,7.82154 1.47576,19.33248 0.59031,11.36336 -0.88546,22.8743 5.75547,-14.46246 8.41185,-27.89189 2.80394,-13.42943 2.80394,-24.49765 0.14758,-11.21579 -0.44273,-21.25097 -0.5903,-10.03517 -0.44272,-21.84127 0.14757,-11.95367 2.06606,-22.72673 2.06607,-11.36336 7.673963,-16.52853 l 1.475762,0.14758 q -1.475762,14.01973 0.295152,27.89189 1.91849,13.72459 5.312742,23.90734 3.394252,10.18276 6.493352,23.61219 3.246676,13.28186 4.427285,26.56371 1.328186,13.13428 -1.180609,32.76191 2.213642,-5.46032 3.83698,-10.62548 1.770914,-5.16517 2.803947,-10.47791 1.033034,-5.46032 1.770915,-9.14972 0.885457,-3.83698 0.885457,-9.44488 0.147576,-5.75547 0.295152,-8.26427 0.295152,-2.50879 -0.147576,-8.55941 -0.442729,-6.1982 -0.590305,-7.67396 0,-1.47577 -0.737881,-8.11669 -0.590305,-6.78851 -0.737881,-7.67396 -7.083656,-1.32819 -12.101246,-6.05063 -5.01759,-4.72243 -5.460318,-11.51094 0.442728,2.36122 1.623338,4.72244 1.180609,2.21364 2.803947,4.13213 1.770914,1.77092 3.83698,3.39425 2.066067,1.47577 4.427286,2.5088 2.361218,1.03303 4.722437,1.47576 -0.590305,-6.7885 -0.885457,-12.10125 -0.147576,-5.31274 0.147576,-12.10124 0.295153,-6.78851 1.475762,-13.28186 3.689404,-20.95581 19.775207,-20.95581 7.526385,0 10.920637,5.60789 3.394252,5.46032 3.541828,11.36337 0.295152,11.95367 -2.656371,21.10339 -2.803947,9.00214 -7.821537,13.87216 -4.870014,4.72244 -10.625485,6.7885 -5.75547,2.06607 -11.658517,1.32819 0.147576,1.62334 0.590304,7.37881 0.590305,5.75547 0.737881,7.82153 0.147576,1.91849 0.442729,7.37881 0.295152,5.46032 0.147576,8.26427 0,2.65637 -0.147576,8.11669 -0.147576,5.31274 -0.737881,9.00214 -0.590305,3.68941 -1.623338,9.2973 -0.885457,5.46032 -2.361219,10.33033 -1.328185,4.72244 -3.246676,10.62549 -1.91849,5.75547 -4.427285,11.80609 l -3.394252,-0.14757 q 0.295153,-16.67611 -2.656371,-33.35222 -2.951523,-16.67611 -6.640927,-28.18705 -3.689405,-11.65851 -6.640927,-28.03947 -2.95152,-16.38095 -2.65637,-32.46676 -1.62334,12.69155 -1.18061,22.43158 0.5903,9.59245 0.73788,20.95582 0.14758,11.36336 -0.29515,22.13642 -0.29516,10.62549 -3.83698,25.3831 -3.54183,14.75762 -10.33034,31.13858 z m 47.371956,-91.20208 q 5.165166,0.59031 9.740027,-1.18061 4.722437,-1.91849 8.706994,-6.1982 3.984557,-4.42728 6.050623,-12.69155 2.213643,-8.26426 1.770914,-19.48005 0.147576,-7.37881 -2.656371,-12.10125 -2.656371,-4.87001 -6.640928,-5.01759 -12.396398,-0.29515 -15.938226,18.88975 -2.951524,15.93823 -1.033033,37.7795 z m -61.686836,-21.98885 q 5.46031,-2.06606 9.59245,-5.31274 4.27971,-3.24668 6.64092,-7.37881 2.36122,-4.27971 2.5088,-9.00214 0.14758,-6.64093 -2.5088,-9.59246 -2.65637,-2.95152 -6.19819,-2.95152 -5.31275,0.14758 -8.26427,3.0991 -2.95152,2.95152 -3.24668,10.62548 -0.44272,10.03518 1.47577,20.51309 z"
         style="font-style:normal;font-variant:normal;font-weight:normal;font-stretch:normal;font-size:147.57617188px;font-family:'Free Monogram Beta';-inkscape-font-specification:'Free Monogram Beta';fill:#000000;fill-opacity:1;stroke:#000000;stroke-width:1;stroke-miterlimit:4;stroke-dasharray:none;stroke-opacity:1"
         id="path818" />
    </g>



<g
       aria-label="m"
       transform="scale(0.91939118,1.0876763)"
       style="font-style:normal;font-variant:normal;font-weight:normal;font-stretch:normal;font-size:34.37497711px;line-height:1.25;font-family:'Open Sans';-inkscape-font-specification:'Open Sans, Normal';font-variant-ligatures:normal;font-variant-caps:normal;font-variant-numeric:normal;font-feature-settings:normal;text-align:start;letter-spacing:0px;word-spacing:0px;writing-mode:lr-tb;text-anchor:start;fill:#000000;fill-opacity:1;stroke:#000000;stroke-width:1;stroke-miterlimit:4;stroke-dasharray:none;stroke-opacity:1"
       id="text835">
      <path
         d="m 8.3513185,216.14003 q 0.2749999,12.23749 0.4124998,39.04998 0.1374999,26.67498 0.5499997,40.69997 0.1374999,6.7375 0.2749998,10.3125 0.2749999,3.4375 0.8249992,7.28749 0.55,3.85 1.5125,5.6375 1.099999,1.65 2.887498,2.8875 1.787499,1.1 4.537497,1.2375 4.674998,0.275 8.387496,-3.1625 3.712498,-3.4375 3.437498,-10.44999 -0.1375,-4.8125 -2.887499,-7.425 -2.612498,-2.6125 -6.049996,-2.475 -3.299998,0.1375 -6.049997,2.2 1.649999,-2.475 5.499997,-3.025 3.987498,-0.55 7.424996,2.3375 3.574998,2.75 3.712498,8.9375 0.1375,7.56249 -3.437498,11.68749 -3.574998,4.125 -9.762495,3.85 -10.0374942,0 -14.4374917,-6.1875 -4.26249767,-6.325 -5.08749721,-18.28749 -0.82499954,-12.92499 0,-80.16245 -3.16249829,5.77499 -5.36249699,13.88749 -2.1999988,8.11249 -3.5749981,19.79999 -1.374999,11.54999 -2.062499,20.21249 -0.687499,8.66249 -1.512499,24.33748 -0.825,15.67499 -1.374999,23.09999 h -2.062499 q -6.049997,-4.95 -9.487495,-16.91249 -3.299998,-11.96249 -4.262497,-25.71249 -0.825,-13.74999 -1.375,-27.08748 -0.549999,-13.33749 -2.062499,-23.09999 -1.512499,-9.76249 -5.087497,-11.54999 l -0.549999,84.97495 q -0.1375,12.64999 -3.712498,17.73749 -3.437498,5.0875 -10.037495,5.3625 -5.774997,0.275 -9.899994,-3.4375 -4.124998,-3.7125 -3.987498,-10.45 0.1375,-6.18749 3.849998,-9.07499 3.712498,-3.025 7.837495,-2.6125 4.124998,0.4125 5.774997,2.8875 -2.887498,-1.7875 -6.324996,-1.925 -3.437498,-0.275 -6.324997,2.6125 -3.024998,2.75 -3.162498,7.5625 -0.1375,6.04999 3.712498,9.21249 3.849998,3.1625 8.249995,2.8875 5.362497,-0.4125 8.387496,-4.675 3.024998,-4.2625 3.162498,-15.53749 l 0.55,-87.17495 q 1.237499,-0.9625 3.299998,-0.275 7.012496,2.2 10.862494,12.37499 3.987498,10.175 5.087497,23.78749 1.099999,13.47499 1.374999,27.08748 0.4125,13.6125 1.374999,24.74999 0.9625,11.13749 3.574998,14.29999 0.1375,-3.4375 0.55,-12.64999 0.55,-9.35 0.6875,-13.47499 0.275,-4.2625 0.687499,-12.65 0.55,-8.38749 1.1,-12.92499 0.549999,-4.5375 1.237499,-11.54999 0.8249997,-7.15 1.6499992,-11.4125 0.9624995,-4.39999 2.1999988,-9.48749 1.2374993,-5.0875 2.7499985,-8.6625 1.649999,-3.71249 3.57499797,-6.46249 2.47499863,-3.575 8.93749503,-3.025 z"
         style="font-style:normal;font-variant:normal;font-weight:normal;font-stretch:normal;font-size:137.49992371px;font-family:'Free Monogram Beta';-inkscape-font-specification:'Free Monogram Beta';fill:#000000;fill-opacity:1;stroke:#000000;stroke-width:1;stroke-miterlimit:4;stroke-dasharray:none;stroke-opacity:1"
         id="path818" />
    </g>


 
    <g
       transform="matrix(0.91667272,0,0,0.91667272,-372.61828,-57.616158)"
       id="g824">
      <path
         sodipodi:nodetypes="cscccccccccccccscccc"
         inkscape:connector-curvature="0"
         id="path6"
         d="m 272.77363,600.09374 c -11.79373,11.642 -67.25742,12.36156 -87.9653,12.36156 -50.35853,0 -91.083994,-49.01562 -91.083994,-49.01562 15.327064,0.2958 38.535164,-1.47656 38.535164,-1.47656 -41.162444,-31.5938 -64.371104,-84.74024 -64.371104,-84.74024 -62.6203202,48.7186 -57.80273,112.4961 -57.80273,112.4961 12.479959,-6.64381 32.8418,-15.94532 32.8418,-15.94532 34.81331,71.7487 120.205434,97.87902 172.753904,111.16602 52.54847,13.2868 80.91797,54.91992 80.91797,54.91992 0,0 28.3713,-41.63312 80.91992,-54.91992 52.54861,-13.2869 137.9406,-39.41722 172.75391,-111.16602 0,0 20.36185,9.30152 32.8418,15.94532 1.5e-4,-10e-5 4.81862,-63.7775 -57.80274,-112.4961 0,0 -23.20969,53.14654 -64.37109,84.74024 0,0 23.20733,1.77246 38.5332,1.47656 0,0 -40.72439,49.01562 -91.08203,49.01562 -20.70743,0 -63.35787,1.11095 -75.15174,-10.53105 -0.17527,-4.44816 1.6555,-20.48907 -3.78856,-22.89181 l -50.97196,-1.51271 c -5.76855,2.0567 -4.88215,18.10326 -5.70642,22.57401 z"
         style="fill:#5780c1;fill-opacity:1;stroke-width:1.21782434" />
      <path
         style="fill:#5780c1;fill-opacity:1"
         sodipodi:nodetypes="ccccccssscccccccsssss"
         inkscape:connector-curvature="0"
         d="m 321.1011,213.36338 1.29436,-31.1269 h 73.9893 l 24.5068,-39.936 h -101.548 v -33.58121 c 17.3064,-8.43602 29.2331,-26.194361 29.2331,-46.743261 C 348.57666,33.270208 325.30546,10 296.60036,10 c -28.7065,0 -51.9764,23.270108 -51.9764,51.976009 0,20.5488 11.9268,38.307141 29.2325,46.743261 v 33.58121 h -101.5473 l 24.5053,39.936 h 73.9907 l -0.64718,27.89109 z M 270.80596,61.976109 c 0,-14.246001 11.5481,-25.795201 25.7944,-25.795201 14.2455,0 25.7951,11.5492 25.7951,25.795201 0,14.2463 -11.5496,25.7944 -25.7951,25.7944 -14.2463,0 -25.7944,-11.5481 -25.7944,-25.7944 z"
         id="path818" />
      <circle
         r="180.8284"
         cy="390.02618"
         cx="296.60037"
         id="path819"
         style="fill:none;fill-rule:evenodd;stroke:#5780c1;stroke-width:28.86538315;stroke-miterlimit:4;stroke-dasharray:none;stroke-opacity:1" />
    </g>
  </g>
</svg>
